# xmcd CD database file
#
# Track frame offsets:
#	150
#	23151
#	40663
#	58984
#	76987
#	97906
#	116020
#	134676
#	155087
#	171596
#	193028
#	206451
#	219990
#	237156
#
# Disc length: 3404 seconds
#
# Revision: 0
# Processed by: cddbd v1.5.2PL0 Copyright (c) Steve Scherf et al.
# Submitted via: CDex 1.72
#
DISCID=c50d4a0e
DTITLE=Annagrey - No Sleep Tonight
DYEAR=2003
DGENRE=Country
TTITLE0=Redeem Myself
TTITLE1=No Sleep Tonight
TTITLE2=Adios
TTITLE3=You Want More
TTITLE4=Selfish Desire
TTITLE5=Can't Help Myself
TTITLE6=Meltdown
TTITLE7=Out Of My Hands
TTITLE8=Hide
TTITLE9=I'm Allright WithThat
TTITLE10=For Life
TTITLE11=Must be Love
TTITLE12=Adios (Remix)
TTITLE13=America Forever
EXTD=YEAR: 2003
EXTT0=
EXTT1=
EXTT2=
EXTT3=
EXTT4=
EXTT5=
EXTT6=
EXTT7=
EXTT8=
EXTT9=
EXTT10=
EXTT11=
EXTT12=
EXTT13=
PLAYORDER=
